<?xml version="1.0" encoding="UTF-8" standalone="no"?>
<!-- Created with Inkscape (http://www.inkscape.org/) -->

<svg
   xmlns:dc="http://purl.org/dc/elements/1.1/"
   xmlns:cc="http://creativecommons.org/ns#"
   xmlns:rdf="http://www.w3.org/1999/02/22-rdf-syntax-ns#"
   xmlns:svg="http://www.w3.org/2000/svg"
   xmlns="http://www.w3.org/2000/svg"
   xmlns:sodipodi="http://sodipodi.sourceforge.net/DTD/sodipodi-0.dtd"
   xmlns:inkscape="http://www.inkscape.org/namespaces/inkscape"
   width="210mm"
   height="297mm"
   viewBox="0 0 744.09448819 1052.3622047"
   id="svg2"
   version="1.1"
   inkscape:version="0.91 r13725"
   sodipodi:docname="drawing.svg">
  <defs
     id="defs4" />
  <sodipodi:namedview
     id="base"
     pagecolor="#ffffff"
     bordercolor="#666666"
     borderopacity="1.0"
     inkscape:pageopacity="0.0"
     inkscape:pageshadow="2"
     inkscape:zoom="1.1741901"
     inkscape:cx="403.30601"
     inkscape:cy="623.04006"
     inkscape:document-units="px"
     inkscape:current-layer="layer2"
     showgrid="false"
     inkscape:snap-page="false"
     inkscape:window-width="1280"
     inkscape:window-height="745"
     inkscape:window-x="0"
     inkscape:window-y="0"
     inkscape:window-maximized="1" />
  <metadata
     id="metadata7">
    <rdf:RDF>
      <cc:Work
         rdf:about="">
        <dc:format>image/svg+xml</dc:format>
        <dc:type
           rdf:resource="http://purl.org/dc/dcmitype/StillImage" />
        <dc:title></dc:title>
      </cc:Work>
    </rdf:RDF>
  </metadata>
  <g
     inkscape:groupmode="layer"
     id="layer5"
     inkscape:label="Layer 5">
    <path
       style="display:inline;fill:#ffffff;fill-opacity:1;fill-rule:evenodd;stroke:#000000;stroke-width:3;stroke-linecap:butt;stroke-linejoin:miter;stroke-opacity:1;stroke-miterlimit:4;stroke-dasharray:none"
       d="m 263.37302,341.44666 c 0.21292,0.63874 -7.45194,33.85312 24.69788,51.73779 32.14982,17.88467 55.78313,11.92311 55.78313,11.92311 0,0 2.98078,-16.18137 -3.61952,-32.36273 -6.60029,-16.18137 34.70478,-8.94234 34.70478,-8.94234 l 0.38184,2.1e-4 c 0,0 41.91873,-7.23887 35.28903,8.94215 -6.62971,16.18102 -3.63564,32.36205 -3.63564,32.36205 0,0 23.73862,5.96144 56.0317,-11.92286 32.29308,-17.88429 24.59407,-51.09796 24.80794,-51.73669 l 36.37694,-6.60098 c 0,0 14.90389,20.86544 14.05224,50.2474 -0.85166,29.38195 -5.96156,64.72546 -16.6072,83.8876 -10.64563,19.16215 -27.67865,39.60177 -27.67865,39.60177 0,0 19.16215,5.96155 26.40118,-1.7033 0,0 -10.64564,14.90389 -37.47264,14.05224 0,0 -5.96156,9.36816 -14.90389,11.92311 0,0 22.14292,22.56875 1.27748,50.88614 -20.86545,28.31739 -48.11828,37.68555 -48.11828,37.68555 0,0 9.14825,20.75644 3.10381,39.34882 -6.04443,18.59238 -19.711,24.09916 -19.711,24.09916 0,0 12.34894,9.79399 11.92311,16.6072 -0.42582,6.8132 -7.23903,17.45884 -18.31049,16.18136 0,0 5.1099,14.90389 2.55495,22.56874 -2.55495,7.66486 -8.94233,14.47807 -8.94233,14.47807 0,0 -25.54953,5.96156 -26.40118,13.20059 -0.85165,7.23903 16.6072,11.07146 16.6072,11.07146 0,0 -21.7171,2.98078 -28.95613,-7.66486 -7.23903,-10.64563 1.27747,-20.86544 7.87777,-27.67865 0,0 -18.77919,-12.98622 -22.78167,-24.69787 -3.3107,-9.68744 0.85166,-30.23361 0.85166,-30.23361 0,0 -15.90014,-9.48271 -19.16215,-26.40118 -3.89142,-20.1829 7.23904,-40.45341 7.23904,-40.45341 0,0 -46.02279,-32.01466 -52.80236,-47.69244 -6.8132,-15.75555 9.79399,-41.30507 9.79399,-41.30507 0,0 -33.4187,-29.79153 -48.96992,-53.65401 -16.7574,-25.71329 -23.58802,-73.20194 -23.4204,-93.25577 0.21478,-25.69674 18.31049,-50.67322 18.31049,-50.67322 z"
       id="path4332"
       inkscape:connector-curvature="0"
       sodipodi:nodetypes="cscsccscsccssccccccccscscscscscscscsscc" />
  </g>
  <g
     inkscape:groupmode="layer"
     id="layer3"
     inkscape:label="Layer 3" />
  <g
     inkscape:groupmode="layer"
     id="layer4"
     inkscape:label="Layer 4">
    <path
       style="display:inline;fill:#ffffff;fill-opacity:1;fill-rule:evenodd;stroke:#000000;stroke-width:3;stroke-linecap:butt;stroke-linejoin:miter;stroke-opacity:1;stroke-miterlimit:4;stroke-dasharray:none"
       d="m 379.8379,261.17386 c 0,0 30.47613,-14.90605 58.48124,-15.33194 28.00509,-0.42589 71.6601,37.90397 91.01656,54.08767 17.84276,14.91812 25.94591,7.24009 30.0643,-6.8142 0,0 -5.35392,59.6242 -93.48761,46.4217 -88.13369,-13.20249 -85.25081,-33.64507 -85.25081,-33.64507 l -2.10278,-0.002 c 0,0 2.98078,20.43962 -88.14586,33.64021 -91.12664,13.20058 -96.66237,-46.41498 -96.66237,-46.41498 4.25825,14.05225 12.63657,21.72917 31.08526,6.81321 20.01379,-16.18136 65.15128,-54.50566 94.10741,-54.07983 28.95613,0.42582 60.46721,15.32972 60.46721,15.32972 z"
       id="path4383-6"
       inkscape:connector-curvature="0"
       sodipodi:nodetypes="csscsccscsscc" />
  </g>
  <g
     inkscape:label="Layer 1"
     inkscape:groupmode="layer"
     id="layer1"
     style="display:inline">
    <path
       style="display:inline;fill:none;fill-rule:evenodd;stroke:#000000;stroke-width:3;stroke-linecap:butt;stroke-linejoin:miter;stroke-opacity:1;stroke-miterlimit:4;stroke-dasharray:none"
       d="m 380.57367,566.00628 c 0.81823,-23.89569 22.23077,-23.9053 45.56877,-23.65433 -27.38852,0.65915 -49.4777,-16.86386 -50.06878,-47.48193 -0.22479,27.79119 -19.00612,47.25222 -47.96097,48.32595 0,0 31.11068,6.25029 52.14942,22.8736 20.54226,16.23103 40.87923,54.93148 40.87923,54.93148"
       id="path4283-6-7"
       inkscape:connector-curvature="0"
       sodipodi:nodetypes="ccccsc" />
    <path
       style="fill:none;fill-rule:evenodd;stroke:#000000;stroke-width:1px;stroke-linecap:butt;stroke-linejoin:miter;stroke-opacity:1"
       d="m 287.25326,303.81755 c 0,0 -5.11877,11.44195 -24.99164,11.44195"
       id="path4409"
       inkscape:connector-curvature="0" />
    <path
       style="fill:none;fill-rule:evenodd;stroke:#000000;stroke-width:1px;stroke-linecap:butt;stroke-linejoin:miter;stroke-opacity:1"
       d="m 316.76146,301.70982 c 0,0 -9.63533,18.06624 -46.67113,15.35631"
       id="path4411"
       inkscape:connector-curvature="0" />
    <path
       style="fill:none;fill-rule:evenodd;stroke:#000000;stroke-width:1px;stroke-linecap:butt;stroke-linejoin:miter;stroke-opacity:1"
       d="m 337.53763,304.11865 c 0,0 -20.47507,29.2071 -61.12412,23.48612"
       id="path4413"
       inkscape:connector-curvature="0" />
    <path
       style="fill:none;fill-rule:evenodd;stroke:#000000;stroke-width:1px;stroke-linecap:butt;stroke-linejoin:miter;stroke-opacity:1"
       d="m 403.78052,302.01092 c 0,0 16.86183,26.19606 49.98328,21.9806"
       id="path4415"
       inkscape:connector-curvature="0" />
    <path
       style="fill:none;fill-rule:evenodd;stroke:#000000;stroke-width:1px;stroke-linecap:butt;stroke-linejoin:miter;stroke-opacity:1"
       d="m 424.2556,305.32307 c 0,0 10.53864,21.67949 43.05788,14.7541"
       id="path4417"
       inkscape:connector-curvature="0" />
    <path
       style="fill:none;fill-rule:evenodd;stroke:#000000;stroke-width:1px;stroke-linecap:butt;stroke-linejoin:miter;stroke-opacity:1"
       d="m 437.20307,305.62417 c 0,0 19.87287,20.47508 42.75678,9.03312"
       id="path4419"
       inkscape:connector-curvature="0" />
    <path
       style="fill:none;fill-rule:evenodd;stroke:#000000;stroke-width:1px;stroke-linecap:butt;stroke-linejoin:miter;stroke-opacity:1"
       d="m 444.42957,267.68506 c 0,0 32.21813,0 71.36166,38.24022"
       id="path4421"
       inkscape:connector-curvature="0" />
    <path
       style="fill:none;fill-rule:evenodd;stroke:#000000;stroke-width:1px;stroke-linecap:butt;stroke-linejoin:miter;stroke-opacity:1"
       d="m 338.74205,266.78175 c -0.3011,0.90331 -9.03312,-16.86182 -50.88658,-3.91435"
       id="path4423"
       inkscape:connector-curvature="0" />
    <path
       style="fill:none;fill-rule:evenodd;stroke:#000000;stroke-width:1px;stroke-linecap:butt;stroke-linejoin:miter;stroke-opacity:1"
       d="m 268.1494,290.44707 c 0,0 -32.74665,24.93406 -49.35738,22.01934"
       id="path4427"
       inkscape:connector-curvature="0" />
    <path
       style="fill:none;fill-rule:evenodd;stroke:#000000;stroke-width:1px;stroke-linecap:butt;stroke-linejoin:miter;stroke-opacity:1"
       d="m 238.46224,346.34365 c -16.4308,29.67988 -16.30544,51.69483 5.96151,70.68702"
       id="path4429"
       inkscape:connector-curvature="0"
       sodipodi:nodetypes="cc" />
    <path
       style="fill:none;fill-rule:evenodd;stroke:#000000;stroke-width:1px;stroke-linecap:butt;stroke-linejoin:miter;stroke-opacity:1"
       d="m 414.92137,418.23709 c -18.06624,4.81766 -33.12144,23.48611 -30.71261,33.72365"
       id="path5118"
       inkscape:connector-curvature="0" />
    <path
       style="fill:none;fill-rule:evenodd;stroke:#000000;stroke-width:1px;stroke-linecap:butt;stroke-linejoin:miter;stroke-opacity:1"
       d="m 345.66744,418.83929 c 18.66845,1.80662 25.29274,18.06624 25.89495,28.30378"
       id="path5122"
       inkscape:connector-curvature="0" />
    <path
       style="fill:none;fill-rule:evenodd;stroke:#000000;stroke-width:1px;stroke-linecap:butt;stroke-linejoin:miter;stroke-opacity:1"
       d="m 368.55135,593.47964 c 18.06624,3.01104 38.54132,28.30378 39.74573,37.93911"
       id="path5132"
       inkscape:connector-curvature="0" />
    <path
       style="fill:none;fill-rule:evenodd;stroke:#000000;stroke-width:1px;stroke-linecap:butt;stroke-linejoin:miter;stroke-opacity:1"
       d="m 363.13148,599.50172 c 12.04416,2.40883 36.73469,28.30378 38.54132,36.13249"
       id="path5134"
       inkscape:connector-curvature="0" />
    <path
       style="fill:none;fill-rule:evenodd;stroke:#000000;stroke-width:1px;stroke-linecap:butt;stroke-linejoin:miter;stroke-opacity:1"
       d="m 330.61224,624.79446 c 22.88391,7.2265 69.25393,56.60756 69.25393,56.60756"
       id="path5136"
       inkscape:connector-curvature="0" />
    <path
       style="fill:none;fill-rule:evenodd;stroke:#000000;stroke-width:1px;stroke-linecap:butt;stroke-linejoin:miter;stroke-opacity:1"
       d="m 315.55704,584.44652 c 26.49715,7.8287 85.51355,66.24289 86.11576,78.28705"
       id="path5138"
       inkscape:connector-curvature="0" />
    <path
       style="fill:none;fill-rule:evenodd;stroke:#000000;stroke-width:1px;stroke-linecap:butt;stroke-linejoin:miter;stroke-opacity:1"
       d="m 341.45199,692.24177 c 21.07728,19.27066 52.99431,23.48611 52.99431,23.48611"
       id="path5140"
       inkscape:connector-curvature="0" />
    <path
       style="fill:none;fill-rule:evenodd;stroke:#000000;stroke-width:1px;stroke-linecap:butt;stroke-linejoin:miter;stroke-opacity:1"
       d="m 331.81666,650.0872 c 6.02208,17.46404 40.95015,43.96119 56.00535,45.16561"
       id="path5142"
       inkscape:connector-curvature="0" />
    <path
       style="fill:none;fill-rule:evenodd;stroke:#000000;stroke-width:1px;stroke-linecap:butt;stroke-linejoin:miter;stroke-opacity:1"
       d="m 363.73369,669.35786 c 4.21545,10.83975 23.48611,19.87287 28.30378,20.47507"
       id="path5144"
       inkscape:connector-curvature="0" />
    <path
       style="fill:none;fill-rule:evenodd;stroke:#000000;stroke-width:1px;stroke-linecap:butt;stroke-linejoin:miter;stroke-opacity:1"
       d="m 366.14252,744.03166 c 16.25962,-1.80662 22.88391,3.01104 24.69053,7.2265"
       id="path5146"
       inkscape:connector-curvature="0" />
    <path
       style="fill:none;fill-rule:evenodd;stroke:#000000;stroke-width:1px;stroke-linecap:butt;stroke-linejoin:miter;stroke-opacity:1"
       d="m 352.29173,710.91022 c 4.81767,7.8287 22.2817,13.24858 22.2817,13.24858"
       id="path5148"
       inkscape:connector-curvature="0" />
    <path
       style="fill:none;fill-rule:evenodd;stroke:#000000;stroke-width:1px;stroke-linecap:butt;stroke-linejoin:miter;stroke-opacity:1"
       d="m 363.13148,728.97646 c 6.02208,5.41987 21.07728,7.82871 27.09936,4.81767"
       id="path5150"
       inkscape:connector-curvature="0" />
    <path
       style="fill:none;fill-rule:evenodd;stroke:#000000;stroke-width:1px;stroke-linecap:butt;stroke-linejoin:miter;stroke-opacity:1"
       d="m 461.8936,568.78911 c -3.61324,18.66845 -28.30378,33.12144 -28.30378,33.12144"
       id="path5154"
       inkscape:connector-curvature="0" />
    <path
       style="fill:none;fill-rule:evenodd;stroke:#000000;stroke-width:1px;stroke-linecap:butt;stroke-linejoin:miter;stroke-opacity:1"
       d="m 443.82736,560.3582 c -8.43091,14.45299 -30.1104,20.47507 -30.1104,20.47507"
       id="path5156"
       inkscape:connector-curvature="0" />
  </g>
  <g
     inkscape:groupmode="layer"
     id="layer2"
     inkscape:label="Layer 2">
    <path
       style="fill:none;fill-rule:evenodd;stroke:#000000;stroke-width:1px;stroke-linecap:butt;stroke-linejoin:miter;stroke-opacity:1"
       d="M 284.02556,430.23126 C 252.51448,429.80544 251.237,426.39883 251.237,426.39883"
       id="path4445"
       inkscape:connector-curvature="0" />
    <path
       style="fill:none;fill-rule:evenodd;stroke:#000000;stroke-width:1px;stroke-linecap:butt;stroke-linejoin:miter;stroke-opacity:1"
       d="m 247.40457,425.54718 c 5.53573,35.34351 8.09068,33.21438 8.09068,33.21438"
       id="path4447"
       inkscape:connector-curvature="0" />
    <path
       style="fill:none;fill-rule:evenodd;stroke:#000000;stroke-width:1px;stroke-linecap:butt;stroke-linejoin:miter;stroke-opacity:1"
       d="m 288.70964,424.2697 c -0.42583,18.73632 -3.83243,18.73632 -3.83243,18.73632"
       id="path4449"
       inkscape:connector-curvature="0" />
    <path
       style="fill:none;fill-rule:evenodd;stroke:#000000;stroke-width:1px;stroke-linecap:butt;stroke-linejoin:miter;stroke-opacity:1"
       d="m 258.05021,440.45107 c 23.4204,0.85165 25.1237,4.25825 25.1237,4.25825"
       id="path4451"
       inkscape:connector-curvature="0" />
    <path
       style="fill:none;fill-rule:evenodd;stroke:#000000;stroke-width:1px;stroke-linecap:butt;stroke-linejoin:miter;stroke-opacity:1"
       d="m 255.06943,434.06369 c 25.54952,3.4066 27.67865,6.38738 27.67865,6.38738"
       id="path4453"
       inkscape:connector-curvature="0" />
    <path
       style="fill:none;fill-rule:evenodd;stroke:#000000;stroke-width:1px;stroke-linecap:butt;stroke-linejoin:miter;stroke-opacity:1"
       d="m 255.92108,440.8769 3.4066,5.96155"
       id="path4455"
       inkscape:connector-curvature="0" />
    <path
       style="fill:none;fill-rule:evenodd;stroke:#000000;stroke-width:1px;stroke-linecap:butt;stroke-linejoin:miter;stroke-opacity:1"
       d="m 263.16011,447.6901 c 0,0 13.62642,-3.4066 20.0138,1.7033 6.38738,5.10991 13.20059,18.73632 8.51651,25.97536 -4.68408,7.23903 -23.4204,13.62641 -31.51109,11.07146"
       id="path4459"
       inkscape:connector-curvature="0" />
    <path
       style="fill:none;fill-rule:evenodd;stroke:#000000;stroke-width:1px;stroke-linecap:butt;stroke-linejoin:miter;stroke-opacity:1"
       d="m 261.03098,456.20661 c 12.34894,-2.12913 20.43963,5.10991 20.0138,8.51651 -0.42583,3.4066 -6.81321,9.79398 -14.05224,7.66486"
       id="path4461"
       inkscape:connector-curvature="0" />
    <path
       style="fill:none;fill-rule:evenodd;stroke:#000000;stroke-width:1px;stroke-linecap:butt;stroke-linejoin:miter;stroke-opacity:1"
       d="m 255.92108,476.64623 c 0,0 8.09068,7.23903 18.73632,1.27748 10.64563,-5.96156 11.92311,-11.92311 11.92311,-11.92311"
       id="path4463"
       inkscape:connector-curvature="0" />
    <path
       style="fill:none;fill-rule:evenodd;stroke:#000000;stroke-width:1px;stroke-linecap:butt;stroke-linejoin:miter;stroke-opacity:1"
       d="m 304.46518,439.17359 c 0,0 16.18136,10.21981 17.03302,19.58797 0.85165,9.36816 -9.36816,18.73632 -12.77477,18.3105"
       id="path4465"
       inkscape:connector-curvature="0" />
    <path
       style="fill:none;fill-rule:evenodd;stroke:#000000;stroke-width:1px;stroke-linecap:butt;stroke-linejoin:miter;stroke-opacity:1"
       d="m 310.00091,443.85767 c -6.38738,7.23904 -8.51651,14.05224 -8.09068,20.43962 0.42582,6.38739 11.92311,9.36816 11.92311,9.36816"
       id="path4467"
       inkscape:connector-curvature="0" />
    <path
       style="fill:none;fill-rule:evenodd;stroke:#000000;stroke-width:1px;stroke-linecap:butt;stroke-linejoin:miter;stroke-opacity:1"
       d="m 300.20692,428.52796 c 0,0 17.91666,3.86443 26.40118,12.34894 8.51651,8.5165 9.36816,23.4204 5.10991,31.08526 -4.25825,7.66485 -14.05224,14.05223 -20.0138,15.75553"
       id="path4469"
       inkscape:connector-curvature="0"
       sodipodi:nodetypes="cssc" />
    <path
       style="fill:none;fill-rule:evenodd;stroke:#000000;stroke-width:1px;stroke-linecap:butt;stroke-linejoin:miter;stroke-opacity:1"
       d="m 313.40751,445.9868 c 0,0 -9.79398,11.49729 -4.68408,19.58797"
       id="path4471"
       inkscape:connector-curvature="0" />
    <path
       style="fill:none;fill-rule:evenodd;stroke:#000000;stroke-width:1px;stroke-linecap:butt;stroke-linejoin:miter;stroke-opacity:1"
       d="m 317.23994,451.09671 c -3.4066,12.34893 1.7033,14.05224 1.7033,14.05224"
       id="path4473"
       inkscape:connector-curvature="0" />
    <path
       style="fill:none;fill-rule:evenodd;stroke:#000000;stroke-width:1px;stroke-linecap:butt;stroke-linejoin:miter;stroke-opacity:1"
       d="m 312.55586,453.65166 c 0,0 -2.98078,8.09068 0.42583,12.77476"
       id="path4475"
       inkscape:connector-curvature="0" />
    <path
       style="fill:none;fill-rule:evenodd;stroke:#000000;stroke-width:1px;stroke-linecap:butt;stroke-linejoin:miter;stroke-opacity:1"
       d="m 301.05857,438.32194 c 0,0 -14.47806,9.79399 -10.64563,18.73632"
       id="path4477"
       inkscape:connector-curvature="0" />
    <path
       style="fill:none;fill-rule:evenodd;stroke:#000000;stroke-width:1px;stroke-linecap:butt;stroke-linejoin:miter;stroke-opacity:1"
       d="m 304.03935,442.5802 c 0,0 -10.64563,5.53573 -8.09068,15.75554"
       id="path4479"
       inkscape:connector-curvature="0" />
    <path
       style="fill:none;fill-rule:evenodd;stroke:#000000;stroke-width:1px;stroke-linecap:butt;stroke-linejoin:miter;stroke-opacity:1"
       d="m 296.3745,467.27807 c 4.25825,10.64564 10.21981,8.09069 10.21981,8.09069"
       id="path4481"
       inkscape:connector-curvature="0" />
    <path
       style="fill:none;fill-rule:evenodd;stroke:#000000;stroke-width:1px;stroke-linecap:butt;stroke-linejoin:miter;stroke-opacity:1"
       d="m 291.69042,475.79458 c 0,0 8.94233,14.47807 17.03301,10.64564"
       id="path4483"
       inkscape:connector-curvature="0" />
    <path
       style="fill:none;fill-rule:evenodd;stroke:#000000;stroke-width:1px;stroke-linecap:butt;stroke-linejoin:miter;stroke-opacity:1"
       d="m 310.85256,481.75614 c 0,0 14.47806,-7.66486 15.75554,-17.45885"
       id="path4485"
       inkscape:connector-curvature="0" />
    <path
       style="fill:none;fill-rule:evenodd;stroke:#000000;stroke-width:1px;stroke-linecap:butt;stroke-linejoin:miter;stroke-opacity:1"
       d="m 312.13004,437.04447 c 0,0 14.90389,10.21981 14.47806,17.03301"
       id="path4487"
       inkscape:connector-curvature="0" />
    <path
       style="fill:none;fill-rule:evenodd;stroke:#000000;stroke-width:1px;stroke-linecap:butt;stroke-linejoin:miter;stroke-opacity:1"
       d="m 337.25374,436.19282 c 9.93136,-14.634 32.53043,11.74855 17.03301,19.58826"
       id="path4491"
       inkscape:connector-curvature="0" />
    <path
       style="fill:none;fill-rule:evenodd;stroke:#000000;stroke-width:1px;stroke-linecap:butt;stroke-linejoin:miter;stroke-opacity:1"
       d="m 355.1384,456.63243 c 16.74811,-6.16044 14.91909,29.23016 -0.85161,22.56868"
       id="path4493"
       inkscape:connector-curvature="0" />
    <path
       style="fill:none;fill-rule:evenodd;stroke:#000000;stroke-width:1px;stroke-linecap:butt;stroke-linejoin:miter;stroke-opacity:1"
       d="m 335.12461,476.64623 c 7.52917,1.35559 16.41018,-1.15848 20.43962,-8.09068"
       id="path4495"
       inkscape:connector-curvature="0" />
    <path
       style="fill:none;fill-rule:evenodd;stroke:#000000;stroke-width:1px;stroke-linecap:butt;stroke-linejoin:miter;stroke-opacity:1"
       d="m 338.53121,463.87147 c 4.9416,3.13637 9.38699,-7.51927 3.4066,-8.51651"
       id="path4497"
       inkscape:connector-curvature="0" />
    <path
       style="fill:none;fill-rule:evenodd;stroke:#000000;stroke-width:1px;stroke-linecap:butt;stroke-linejoin:miter;stroke-opacity:1"
       d="m 341.08616,454.92914 c 8.01768,0.53952 5.07861,-14.82302 -2.12912,-11.49751"
       id="path4499"
       inkscape:connector-curvature="0" />
    <path
       style="fill:none;fill-rule:evenodd;stroke:#000000;stroke-width:1px;stroke-linecap:butt;stroke-linejoin:miter;stroke-opacity:1"
       d="m 344.91859,438.74777 c 6.45546,0.74956 11.16038,10.62683 5.10991,14.9039"
       id="path4501"
       inkscape:connector-curvature="0" />
    <path
       style="fill:none;fill-rule:evenodd;stroke:#000000;stroke-width:1px;stroke-linecap:butt;stroke-linejoin:miter;stroke-opacity:1"
       d="m 331.29218,479.20118 c 3.29566,7.69239 12.04835,11.4943 20.01379,11.49728"
       id="path4727"
       inkscape:connector-curvature="0" />
    <path
       style="fill:none;fill-rule:evenodd;stroke:#000000;stroke-width:1px;stroke-linecap:butt;stroke-linejoin:miter;stroke-opacity:1"
       d="m 337.25374,482.60779 c 4.78623,1.73972 10.3181,5.26659 15.32973,2.12933"
       id="path4729"
       inkscape:connector-curvature="0" />
    <path
       style="fill:none;fill-rule:evenodd;stroke:#000000;stroke-width:1px;stroke-linecap:butt;stroke-linejoin:miter;stroke-opacity:1"
       d="m 248.68205,350.60191 c -12.82562,26.54058 0.2494,65.35979 31.08525,71.96449"
       id="path4876"
       inkscape:connector-curvature="0" />
    <path
       style="fill:none;fill-rule:evenodd;stroke:#000000;stroke-width:1px;stroke-linecap:butt;stroke-linejoin:miter;stroke-opacity:1"
       d="m 497.78992,362.09919 c -6.10346,11.35536 -30.51746,56.77674 -36.62099,68.13207"
       id="path4878"
       inkscape:connector-curvature="0" />
    <path
       style="fill:none;fill-rule:evenodd;stroke:#000000;stroke-width:1px;stroke-linecap:butt;stroke-linejoin:miter;stroke-opacity:1"
       d="m 511.41633,351.02773 c 16.10056,40.60296 11.38994,94.36006 -25.54952,122.63772"
       id="path4880"
       inkscape:connector-curvature="0" />
    <path
       style="fill:none;fill-rule:evenodd;stroke:#000000;stroke-width:1px;stroke-linecap:butt;stroke-linejoin:miter;stroke-opacity:1"
       d="m 480.33108,520.08042 c -5.96156,-0.85165 -10.21981,-8.5165 -10.21981,-8.5165 0,0 -16.89772,25.62514 -46.98606,7.91557 -30.08834,-17.70956 -4.11299,-47.09151 -4.11299,-47.09151 2.12912,-8.09069 -15.75554,-17.45884 -15.75554,-17.45884 l 17.45884,-1.70331 c 0,0 1.7033,-11.92311 15.75554,-8.51651 14.05224,3.40661 8.09068,26.40118 8.09068,26.40118 0,0 6.81321,3.4066 10.64564,6.81321 3.83243,3.4066 6.38738,7.23903 6.38738,7.23903 0,0 8.09068,5.96156 20.43962,5.53573 12.34894,-0.42582 21.7171,-5.96156 21.7171,-5.96156 0,0 -7.66486,14.47807 -19.58797,17.03302 0,0 2.12912,5.96156 8.09068,5.96156"
       id="path5082"
       inkscape:connector-curvature="0"
       sodipodi:nodetypes="cccc" />
    <path
       style="fill:none;fill-rule:evenodd;stroke:#000000;stroke-width:1px;stroke-linecap:butt;stroke-linejoin:miter;stroke-opacity:1"
       d="m 476.49865,509.43479 c 0,0 8.94233,11.92311 24.69787,6.81321"
       id="path5084"
       inkscape:connector-curvature="0" />
    <path
       style="fill:none;fill-rule:evenodd;stroke:#000000;stroke-width:1px;stroke-linecap:butt;stroke-linejoin:miter;stroke-opacity:1"
       d="m 485.01516,509.00896 c 0,0 6.38738,8.09069 16.18136,5.10991"
       id="path5086"
       inkscape:connector-curvature="0" />
    <path
       style="fill:none;fill-rule:evenodd;stroke:#000000;stroke-width:1px;stroke-linecap:butt;stroke-linejoin:miter;stroke-opacity:1"
       d="m 419.43804,494.5309 c 0,0 -3.83243,15.75554 13.20059,18.73632"
       id="path5088"
       inkscape:connector-curvature="0" />
    <path
       style="fill:none;fill-rule:evenodd;stroke:#000000;stroke-width:1px;stroke-linecap:butt;stroke-linejoin:miter;stroke-opacity:1"
       d="m 425.3996,497.51168 c 0,0 3.83243,10.64563 13.20059,9.79398"
       id="path5090"
       inkscape:connector-curvature="0" />
    <path
       style="fill:none;fill-rule:evenodd;stroke:#000000;stroke-width:1px;stroke-linecap:butt;stroke-linejoin:miter;stroke-opacity:1"
       d="m 432.21281,493.67925 c 0,0 3.83242,8.09068 14.05223,8.09068"
       id="path5092"
       inkscape:connector-curvature="0" />
    <path
       style="fill:none;fill-rule:evenodd;stroke:#000000;stroke-width:1px;stroke-linecap:butt;stroke-linejoin:miter;stroke-opacity:1"
       d="m 454.35573,451.52253 c 0,0 0.42582,14.05224 -4.68408,17.88467"
       id="path5094"
       inkscape:connector-curvature="0" />
    <path
       style="fill:none;fill-rule:evenodd;stroke:#000000;stroke-width:1px;stroke-linecap:butt;stroke-linejoin:miter;stroke-opacity:1"
       d="m 462.02058,452.80001 c 0,0 1.70331,16.18136 -7.23903,20.86544"
       id="path5096"
       inkscape:connector-curvature="0" />
    <path
       style="fill:none;fill-rule:evenodd;stroke:#000000;stroke-width:1px;stroke-linecap:butt;stroke-linejoin:miter;stroke-opacity:1"
       d="m 468.83379,466.85225 c 0,0 -6.38738,10.64563 -11.92311,11.07146"
       id="path5098"
       inkscape:connector-curvature="0" />
    <path
       style="fill:none;fill-rule:evenodd;stroke:#000000;stroke-width:1px;stroke-linecap:butt;stroke-linejoin:miter;stroke-opacity:1"
       d="m 479.47943,469.83302 c 0,0 -7.23903,11.07147 -14.47807,11.92312"
       id="path5100"
       inkscape:connector-curvature="0" />
    <path
       style="fill:none;fill-rule:evenodd;stroke:#000000;stroke-width:1px;stroke-linecap:butt;stroke-linejoin:miter;stroke-opacity:1"
       d="m 429.65785,454.07748 c -10.21981,7.66486 -13.62641,3.83243 -13.62641,3.83243"
       id="path5102"
       inkscape:connector-curvature="0" />
    <path
       style="fill:none;fill-rule:evenodd;stroke:#000000;stroke-width:1px;stroke-linecap:butt;stroke-linejoin:miter;stroke-opacity:1"
       d="m 434.34193,456.63244 c 0,0 -5.96155,8.09068 -11.07146,8.51651"
       id="path5104"
       inkscape:connector-curvature="0" />
    <path
       style="fill:none;fill-rule:evenodd;stroke:#000000;stroke-width:1px;stroke-linecap:butt;stroke-linejoin:miter;stroke-opacity:1"
       d="m 439.45184,461.74234 c 0,0 -4.25826,8.51651 -10.21981,8.09068"
       id="path5106"
       inkscape:connector-curvature="0" />
    <path
       style="fill:none;fill-rule:evenodd;stroke:#000000;stroke-width:1px;stroke-linecap:butt;stroke-linejoin:miter;stroke-opacity:1"
       d="m 356.41588,500.91828 c 0,0 -5.53573,24.27205 -28.5303,28.95613"
       id="path5108"
       inkscape:connector-curvature="0" />
    <path
       style="fill:none;fill-rule:evenodd;stroke:#000000;stroke-width:1px;stroke-linecap:butt;stroke-linejoin:miter;stroke-opacity:1"
       d="m 276.3607,500.06663 c 0,0 10.21981,23.4204 23.84622,25.97535"
       id="path5110"
       inkscape:connector-curvature="0" />
    <path
       style="fill:none;fill-rule:evenodd;stroke:#000000;stroke-width:1px;stroke-linecap:butt;stroke-linejoin:miter;stroke-opacity:1"
       d="m 291.26459,533.70684 c 0,0 13.62641,17.88467 37.89846,16.18136"
       id="path5112"
       inkscape:connector-curvature="0" />
  </g>
</svg>
