<?xml version="1.0" encoding="UTF-8" standalone="no"?>
<!-- Created with Inkscape (http://www.inkscape.org/) -->

<svg
   xmlns:dc="http://purl.org/dc/elements/1.1/"
   xmlns:cc="http://creativecommons.org/ns#"
   xmlns:rdf="http://www.w3.org/1999/02/22-rdf-syntax-ns#"
   xmlns:svg="http://www.w3.org/2000/svg"
   xmlns="http://www.w3.org/2000/svg"
   xmlns:sodipodi="http://sodipodi.sourceforge.net/DTD/sodipodi-0.dtd"
   xmlns:inkscape="http://www.inkscape.org/namespaces/inkscape"
   id="svg2"
   version="1.1"
   inkscape:version="0.91 r13725"
   width="3.3000898in"
   height="3.7999995in"
   viewBox="0 0 297.00809 341.99996"
   sodipodi:docname="beard-outline.svg">
  <sodipodi:namedview
     pagecolor="#ffffff"
     bordercolor="#666666"
     borderopacity="1"
     objecttolerance="10"
     gridtolerance="10"
     guidetolerance="10"
     inkscape:pageopacity="0"
     inkscape:pageshadow="2"
     inkscape:window-width="1912"
     inkscape:window-height="1060"
     id="namedview4"
     showgrid="false"
     inkscape:zoom="1.5721654"
     inkscape:cx="42.992296"
     inkscape:cy="171.62739"
     inkscape:window-x="0"
     inkscape:window-y="0"
     inkscape:window-maximized="1"
     inkscape:current-layer="svg2"
     fit-margin-top="0"
     fit-margin-left="0"
     fit-margin-right="0"
     fit-margin-bottom="0"
     units="in" />
  <metadata
     id="metadata8">
    <rdf:RDF>
      <cc:Work
         rdf:about="">
        <dc:format>image/svg+xml</dc:format>
        <dc:type
           rdf:resource="http://purl.org/dc/dcmitype/StillImage" />
        <dc:title></dc:title>
      </cc:Work>
    </rdf:RDF>
  </metadata>
  <defs
     id="defs6" />
  <path
     style="fill:#000000"
     d="m 143.3474,341.98506 l -7.00517,-0.69886 l -6.72797,-1.9764 l -3.06625,-2.62325 l 0.1968,-3.71261 l 6.06311,-4.69248 l 1.05202,-0.61655 l -1.84139,-0.77034 l -5.28245,-2.17276 l -5.12063,-2.52964 l -3.56994,-2.36804 l -2.50161,-3.40486 l 0.11857,-5.99994 l 1.09605,-3.78268 l -1.16754,-0.64935 l -5.39355,-2.3155 l -4.95424,-3.13366 l -3.65324,-4.52122 l -0.65723,-3.68565 l 0.94802,-4.66256 l 4.21436,-6.43002 l 0.80322,-0.98243 l -2.03879,-0.73232 l -6.128429,-2.18006 l -6.09841,-2.26416 l -6.066669,-2.34822 l -6.019425,-2.46389 l -5.380942,-2.38704 l -5.25916,-2.64365 l -4.804828,-3.3683 l -1.549503,-3.5245 l 1.100423,-7.94037 l 2.559741,-7.61726 l 1.999572,-4.34456 l 2.22187,-4.23515 l 0.910878,-1.57093 l -0.509234,-0.47546 l -3.107309,-2.89162 l -4.485639,-4.34113 l -4.429519,-4.39926 l -4.398328,-4.43164 l -4.336464,-4.49062 l -4.331935,-4.79381 l -4.214676,-4.89677 l -4.044092,-5.03948 l -3.807624,-5.21883 l -3.386608,-5.43594 l -2.909964,-5.70645 l -2.501301,-5.89728 l -2.17284,-6.02741 l -2.219977,-7.25816 l -1.890429,-7.3517 l -1.604769,-7.41834 l -1.337102,-7.47215 l -1.066252,-7.51479 l -0.771127,-7.55055 l -0.420951,-7.57718 l 0.2548,-6.96142 l 1.12217,-6.87544 l 1.869649,-6.711247 l 2.464027,-6.519162 l 3.417395,-7.122095 l 3.918575,-6.859162 l 0.907965,-1.427075 l -0.38566,-0.173621 l -5.631312,-2.829509 l -5.26226,-3.464771 l -4.730841,-4.159909 l -4.4787664,-5.178729 l -3.629474,-5.804414 l -2.6730609,-6.303304 l -1.5617347,-6.656487 l 1.1653268,-0.276597 l 1.1180458,-0.229323 l 0.10037,0.258077 l 0.670804,1.82901 l 2.67451,5.26625 l 4.6233484,3.529075 l 4.541082,-0.02929 l 4.755263,-1.961372 l 4.307803,-2.82585 l 6.162932,-4.937583 l 5.827753,-4.694284 l 5.872906,-4.63892 l 5.942659,-4.547739 l 6.042748,-4.411957 l 6.161603,-4.247096 l 6.070957,-3.923302 l 6.220208,-3.6832238 l 6.399704,-3.359984 l 6.614581,-2.909606 l 6.862686,-2.257602 l 7.105161,-1.2822339 l 4.186249,-0.052399 l 4.18247,0.247085 l 7.07066,0.8867469 l 6.99829,1.348873 l 6.91411,1.733528 l 6.82132,2.065928 l 6.72544,2.363581 l 4.15336,1.6296158 l 4.10586,1.74097 l 0.47041,0.239986 l 1.91891,-0.852302 l 7.08671,-2.9386408 l 7.22449,-2.581049 l 7.34886,-2.202224 l 7.46255,-1.78011 l 7.56364,-1.2795799 l 7.64201,-0.6373933 l 7.8161,0.6305945 l 7.53653,2.1939147 l 6.63571,2.821258 l 6.39534,3.33318 l 6.19393,3.6954828 l 6.02909,3.960333 l 5.89267,4.15867 l 5.78184,4.312994 l 5.6884,4.433978 l 5.61149,4.53259 l 5.54574,4.612825 l 3.86691,3.25736 l 4.29265,3.470849 l 4.64958,2.961242 l 5.86079,1.6521 l 4.9929,-2.090597 l 1.60216,-1.888019 l 2.60818,-5.533169 l 0.52267,-1.554082 l 0.54469,0.06652 l 1.1848,0.20586 l 0.64013,0.13935 l -0.0787,0.562754 l -1.63239,6.56305 l -2.65257,6.226636 l -3.5077,5.786919 l -5.07241,5.846322 l -6.00396,4.887538 l -6.70477,3.870748 l -1.775,0.85448 l 0.66909,1.147992 l 2.31131,4.483914 l 2.05331,4.607131 l 2.5603,7.483775 l 1.75754,7.71208 l 0.91723,7.856797 l 0.0735,6.04998 l -0.22124,6.04828 l -0.37952,6.04074 l -0.51763,6.02918 l -0.78667,7.06025 l -0.98919,7.03429 l -1.22099,6.99764 l -1.49354,6.94431 l -1.82557,6.86502 l -2.24807,6.73741 l -2.81925,6.5162 l -3.72213,6.58806 l -4.08455,6.37158 l -4.29491,6.23275 l -4.46862,6.11028 l -4.6461,5.97501 l -0.85162,1.29015 l 5.48215,1.01879 l 6.89807,0.0124 l 5.2522,-2.12779 l 0.46327,-0.3547 l 0.98979,0.74014 l 0.89479,0.74016 l -0.46819,0.55887 l -3.57718,3.38522 l -5.58333,3.52745 l -6.14078,2.43973 l -6.45327,1.4302 l -6.59361,0.47073 l -1.70248,0 l -0.99608,1.25575 l -3.89193,4.04692 l -4.64175,3.14567 l -0.89172,0.73146 l 0.72227,0.98714 l 2.89316,4.75061 l 2.09556,5.155 l 1.22868,5.42497 l 0.0688,7.21158 l -2.89899,5.31619 l -4.81181,3.82694 l -5.00705,2.96577 l -5.20445,2.60602 l -5.34814,2.29862 l -6.69699,2.42609 l -6.81741,2.06298 l -6.92083,1.68767 l -1.61717,0.3676 l 0.67491,1.09814 l 2.1421,4.0234 l 0.81731,4.4698 l -1.04513,4.41068 l -2.99311,3.87542 l -4.94236,3.59355 l -5.62218,2.4195 l -1.8308,0.61804 l 2.1329,1.03952 l 5.18316,3.1799 l 1.18789,2.29662 l -2.61091,3.4032 l -3.8628,2.04424 l -6.90419,1.27526 l -0.80827,0.0906 l 0.67506,1.32777 l 0.98587,6.6371 l -3.18818,3.29739 l -3.84465,2.54483 l -3.29838,0.78744 l -6.30969,0.91541 l -6.25686,1.21751 l -5.73207,2.3941 l 2.83976,1.72745 l 4.22114,0.98374 l 4.28152,0.68413 l 1.13134,0.14863 l -0.0598,0.53075 l -0.1302,0.60112 l -4.78174,0.10202 l -4.78307,-0.0149 l -3e-5,2e-5 m 0.42293,-1.61484 l -4.43944,-1.69535 l 1.6452,-3.64378 l 5.40238,-1.49343 l 5.41715,-1.00131 l 5.44848,-0.81385 l 3.0199,-0.52144 l 4.55065,-3.08027 l 2.2557,-2.61869 l -0.19798,-3.58931 l -1.93985,-3.96324 l -0.64951,-0.98635 l 2.53765,-0.12917 l 6.07235,-0.71783 l 3.94214,-1.82281 l 2.58061,-3.26799 l -1.80996,-2.2198 l -3.6232,-2.0461 l -3.80852,-1.68483 l -1.14799,-0.64733 l 1.51052,-0.32338 l 4.94378,-1.56587 l 4.65835,-2.28025 l 3.56722,-2.787 l 2.71292,-3.61172 l 0.90029,-3.91307 l -0.66049,-3.97567 l -3.1397,-5.54921 l -0.45944,-0.55106 l 0.50563,-0.13946 l 0.92856,-0.40869 l 0.63538,-0.23825 l 4.90796,-1.02089 l 6.64845,-1.80575 l 6.53906,-2.16803 l 6.4027,-2.54183 l 6.22012,-2.95588 l 5.95472,-3.45945 l 4.0032,-3.12003 l 2.8959,-4.12025 l 0.45257,-5.67952 l -0.9847,-6.17576 l -2.23789,-5.83893 l -2.20858,-3.82274 l -2.77881,-3.43051 l -0.97163,-1.17465 l 1.5593,-0.46344 l 5.24926,-2.56756 l 3.40503,-3.04015 l 2.90167,-3.52201 l 0.34748,-0.56473 l 3.41346,-0.0714 l 6.55531,-0.49867 l 6.82292,-1.67711 l 6.37896,-2.94611 l 1.11778,-0.68566 l -2.36504,0.0263 l -5.2616,-0.2501 l -5.1825,-0.94414 l -3.86691,-1.14312 l 0.88345,-1.11259 l 4.35057,-5.41769 l 4.19193,-5.54166 l 4.05183,-5.64593 l 3.90421,-5.74848 l 3.71458,-5.87192 l 3.37049,-6.07523 l 3.01749,-7.29569 l 2.3441,-7.54175 l 1.86202,-7.67475 l 1.48721,-7.7574 l 1.17735,-7.81032 l 0.90978,-7.84641 l 0.67052,-7.86987 l 0.45071,-7.88541 l 0.0771,-5.49977 l -0.20899,-5.49675 l -0.86609,-6.175147 l -1.38993,-6.07962 l -1.89646,-5.941313 l -2.38431,-5.762087 l -3.50738,-6.412709 l -0.69945,-1.103782 l -0.4558,-0.811467 l 0.0953,-0.328403 l 5.31072,-2.377082 l 5.00589,-2.960439 l 4.73228,-3.711609 l 4.17246,-4.331453 l 3.51305,-4.880625 l 2.26439,-4.207013 l -0.63442,0.348666 l -4.06617,1.716701 l -4.42291,-0.207439 l -7.1081,-3.334484 l -4.17009,-3.127985 l -4.00818,-3.336677 l -5.58745,-4.661923 l -5.62712,-4.612662 l -5.69546,-4.527493 l -5.79808,-4.3961 l -5.91206,-4.240141 l -6.2714,-4.20885 l -6.45135,-3.926446 l -6.66501,-3.5505828 l -6.92454,-3.009791 l -7.23757,-2.135721 l -7.31351,-0.618599 l -7.51837,0.597624 l -7.43867,1.254968 l -7.33485,1.768 l -7.22057,2.187744 l -7.10234,2.5446738 l -4.25461,1.718118 l -4.19879,1.845145 l -3.23597,-0.289745 l -6.12925,-2.541412 l -6.24059,-2.2522688 l -6.32536,-2.004663 l -6.40102,-1.749098 l -6.47908,-1.428528 l -5.98194,-0.953403 l -6.02697,-0.608014 l -6.053199,-0.02749 l -7.05632,1.323761 l -6.804115,2.303394 l -6.552046,2.952793 l -6.337132,3.3927638 l -6.160716,3.701034 l -6.020719,3.926914 l -6.088039,4.233373 l -5.972374,4.396753 l -5.878498,4.520654 l -5.814772,4.604374 l -5.771657,4.656362 l -3.401321,2.755674 l -3.486609,2.646326 l -5.419958,3.125188 l -6.059934,1.414293 l -5.7251664,-1.726538 l -1.041582,-0.63133 l 2.907201,5.067086 l 3.9710774,5.081874 l 4.687508,4.427883 l 5.291186,3.68871 l 3.89532,2.105864 l 4.051732,1.78089 l 0.417155,0.228489 l -0.746913,2.278772 l -0.935384,2.235559 l -3.693676,6.426702 l -3.170565,6.70074 l -2.61379,6.93736 l -1.920225,7.157957 l -1.009537,7.52963 l 2.34e-4,7.59947 l 0.59321,7.57795 l 0.908658,7.6196 l 1.193197,7.58101 l 1.478035,7.53103 l 1.773475,7.46677 l 2.092589,7.38254 l 2.455253,7.27046 l 2.89256,7.10762 l 3.463064,6.84475 l 4.329785,6.60503 l 4.823485,6.25638 l 5.106276,6.02759 l 5.30004,5.85855 l 5.235743,5.4455 l 5.345162,5.3386 l 5.426344,5.25572 l 5.541244,5.13343 l 0.629724,0.55967 l -0.498575,0.76958 l -3.5667,6.44312 l -2.935646,6.75544 l -1.763568,5.93278 l -0.756599,6.13149 l 1.321173,3.18024 l 6.230691,4.02334 l 6.73926,3.16046 l 6.87002,2.8654 l 6.939655,2.69603 l 6.983169,2.57879 l 7.01675,2.49074 l 1.45739,0.50847 l -0.33362,0.6614 l -1.27932,1.77403 l -2.51212,3.4084 l -1.70254,3.86967 l -0.33707,2.89763 l 0.33013,2.77934 l 1.61541,2.87278 l 5.97263,4.53059 l 6.93246,2.9376 l 1.24019,0.41142 l -0.27767,0.84788 l -1.32377,5.0335 l 0.325,5.15447 l 3.28897,3.33514 l 6.81059,3.58785 l 7.15652,2.84841 l 2.05077,0.71483 l -1.57093,0.9744 l -4.23362,2.48698 l -3.13176,3.64765 l 1.06485,2.72623 l 6.10732,2.71264 l 4.27799,0.62743 l 4.31719,0.262 l 1.20841,0.008 l -1.75219,-0.45975 l 0,2.9e-4 m 8.25405,-81.03938 l -2.71892,-1.03589 l -3.29957,-1.55915 l -6.18671,-3.67274 l -6.46431,-3.15979 l -6.65261,-2.74178 l -6.79802,-2.3585 l -4.48073,-1.32892 l -4.52192,-1.17841 l -1.60471,-0.41624 l 0,-1.21728 l 0.0942,-1.13837 l 1.45009,-0.0846 l 7.09239,-0.98644 l 6.83318,-2.13708 l 6.33469,-3.33005 l 5.24585,-4.31488 l 4.31726,-5.24378 l 2.99342,-5.5711 l 1.98907,-6.00461 l 0.8226,-4.42565 l 0.39321,-4.48637 l 0.0719,-1.1782 l 1.17833,0 l 1.17832,0 l 0.0756,1.72198 l 0.80937,6.49521 l 1.9817,6.73263 l 3.22889,6.22997 l 4.43368,5.43746 l 5.47025,4.39331 l 6.2455,3.19969 l 6.73408,1.97982 l 7.76403,0.87104 l 2.44703,0.0743 l 0,1.18978 l 0,1.18977 l -5.46805,0 l -7.13505,0.12289 l -7.09397,0.73284 l -7.48993,2.29147 l -5.81106,5.14064 l -2.41441,7.41395 l 0.0662,1.29055 l -0.21747,1.10195 l -0.26562,0.24073 l -0.62775,-0.2807 l 0,5.9e-4 m -0.98786,-4.82279 l 2.12457,-5.75962 l 4.05124,-4.59619 l 5.40917,-2.91425 l 4.42601,-1.2167 l 4.53698,-0.70548 l 1.33852,-0.21818 l -1.35841,-0.53704 l -5.67067,-2.61114 l -5.15529,-3.52184 l -4.4805,-4.34821 l -3.66956,-5.05042 l -2.31034,-4.59206 l -1.71353,-4.84709 l -0.45224,-1.43552 l -0.28903,0.93433 l -1.69923,5.12242 l -3.04042,5.89785 l -4.04853,5.25591 l -4.93607,4.43366 l -5.6485,3.48033 l -4.99821,2.12994 l -5.24001,1.44055 l -1.81262,0.39111 l 0.72504,0.20302 l 6.30026,1.99374 l 6.20678,2.27271 l 6.99126,3.06106 l 6.75986,3.54216 l 6.42932,4.10984 l 0.78546,0.57249 l 0.0953,-0.63949 l 0.34343,-1.84789 l 0,0 m -40.67872,-123.15558 l -7.28279,-0.86525 l -7.163439,-1.56742 l -6.972832,-2.27466 l -5.024021,-2.06762 l -4.89881,-2.35272 l -4.729122,-2.67278 l -5.657612,-4.22833 l -4.858289,-5.12274 l -3.825093,-5.93373 l -2.633877,-6.550307 l -1.404196,-6.69657 l -0.313619,-6.83761 l 0.63046,-5.196159 l 0.779321,-1.721984 l 0.0024,-0.332317 l 3.051235,-0.0019 l 6.858875,-0.215152 l 6.834806,-0.615608 l 6.804103,-0.895983 l 6.782065,-1.056238 l 7.253446,-1.257426 l 7.224729,-1.409197 l 7.18882,-1.589125 l 7.13645,-1.807213 l 7.06013,-2.081669 l 6.94308,-2.44485 l 6.73813,-2.957942 l 6.39187,-3.75623 l 5.06455,-5.334249 l 0.4356,-2.037901 l -0.0108,-1.178199 l 2.1356,0 l 2.19661,0.06101 l -0.0498,0.792954 l 1.00952,3.32623 l 4.75788,4.689963 l 5.74895,3.463278 l 6.11299,2.780206 l 6.2986,2.332079 l 6.41041,2.003081 l 6.48677,1.74387 l 6.99406,1.642854 l 7.03332,1.461207 l 7.06522,1.304115 l 7.08871,1.164863 l 6.45949,0.903706 l 6.48637,0.671446 l 6.51438,0.298376 l 1.60114,7.6e-5 l 0,0.789342 l 0.16752,1.190294 l 0.50462,5.793272 l -0.23144,5.821695 l -1.48958,7.128185 l -2.71641,6.752177 l -3.99275,6.0831 l -5.05646,5.18273 l -5.87974,4.23079 l -6.38026,3.43786 l -6.21223,2.71581 l -6.40001,2.23642 l -6.56508,1.69085 l -6.69419,1.07166 l -6.7682,0.37479 l -4.37857,-0.17489 l -4.33279,-0.63116 l -1.06264,-2.10936 l -0.36885,-7.95999 l 0.45699,-5.7133 l 1.0574,-5.63127 l 1.71069,-5.47005 l 0.74647,-2.82203 l -1.068,-2.344877 l -5.76308,-2.07551 l -6.19867,-0.35122 l -6.17695,0.23752 l -6.14341,0.68352 l -6.04746,-0.12107 l -5.48253,-0.60346 l -5.514,-0.13309 l -5.8932,0.21181 l -4.7412,1.28739 l -1.99224,4.900757 l 1.64845,4.9069 l 1.18195,5.03839 l 0.61755,4.70408 l 0.10913,4.7456 l -0.43702,7.51253 l -0.13909,0.92671 l -0.73585,0.18363 l -4.95262,0.68154 l -7.14228,0.0422 l 3.1e-4,0 m 9.06308,-2.64207 l 1.59553,-0.22895 l 0.17882,-1.16297 l 0.16327,-5.58768 l -0.22725,-5.58563 l -0.87986,-5.19821 l -1.43432,-5.07327 l -0.92249,-2.59809 l 1.36845,-6.461777 l 6.3694,-2.61435 l 6.96006,-0.46719 l 6.20722,0.24016 l 6.17436,0.68658 l 2.35175,0.32112 l 1.9381,-0.26494 l 5.78681,-0.6757 l 5.81933,-0.27413 l 6.63483,0.18876 l 6.41134,1.59367 l 3.27503,3.07786 l 0.0764,4.468687 l -0.93102,2.6585 l -1.70017,6.18522 l -0.85754,6.35833 l -0.0459,6.41599 l 0.22959,3.15435 l 0.0783,0.6042 l 0.96672,0.13996 l 6.20555,0.38209 l 6.21185,-0.27103 l 6.7796,-1.07673 l 6.64998,-1.70228 l 6.47407,-2.28122 l 6.26799,-2.80049 l 6.87084,-3.83002 l 6.12242,-4.92544 l 4.03152,-4.63897 l 3.14628,-5.27756 l 2.1447,-5.759227 l 1.22393,-6.02398 l 0.224,-4.831829 l -0.15801,-4.833511 l -0.18126,-1.342749 l -2.81042,-0.15485 l -7.45192,-0.579814 l -7.41221,-0.968653 l -7.38079,-1.187805 l -7.64403,-1.377298 l -7.60843,-1.557977 l -7.5607,-1.775104 l -7.49265,-2.044071 l -7.38847,-2.39077 l -7.21647,-2.863573 l -6.8957,-3.562608 l -6.15152,-4.709397 l -2.82702,-3.979109 l -0.24061,-0.577577 l -0.4359,0.88198 l -4.2409,5.012911 l -5.45372,3.723378 l -7.14289,3.47119 l -7.43501,2.796033 l -7.59203,2.340926 l -7.68779,2.00726 l -7.75086,1.748079 l -7.795889,1.538522 l -7.827796,1.363391 l -7.852827,1.213823 l -6.324754,0.802766 l -6.35188,0.553159 l -6.370579,0.225706 l -2.310743,6.08e-4 l -0.06977,0.453149 l -0.294709,5.392076 l 0.270939,5.392987 l 1.477897,6.791461 l 2.674463,6.412637 l 3.895973,5.7512 l 4.949199,4.87566 l 5.721666,3.94589 l 5.893159,3.0978 l 6.122873,2.61446 l 6.307029,2.13216 l 6.461149,1.60334 l 6.58742,0.95669 l 1.99387,0.17444 l 4.53398,0.003 l 4.5291,-0.2362 l 3e-5,1e-5"
     id="path4138"
     inkscape:connector-curvature="0" />
</svg>
